<svg xmlns="http://www.w3.org/2000/svg" width="674.89343" height="914.66681" x="0px" y="0px" viewBox="0 0 674.89343 914.66681"><path fill="none" d="M-10.884-11.98h696.661v935.444H-10.884z" style="fill:#4791ff;fill-opacity:0"/><defs><linearGradient id="b" x1="1500" x2="1500" y1="1888.46" y2="257.43701" gradientUnits="userSpaceOnUse"><stop offset="0" style="stop-opacity:1;stop-color:#3e8a9b"/><stop offset="0.4" style="stop-opacity:1;stop-color:#51abb2"/><stop offset="1" style="stop-opacity:1;stop-color:#64ccc9"/></linearGradient><linearGradient id="c" x1="2081.0801" x2="2081.0801" y1="1552.71" y2="593.185" gradientUnits="userSpaceOnUse"><stop offset="0" style="stop-opacity:1;stop-color:#3e8a9b"/><stop offset="0.388235" style="stop-opacity:1;stop-color:#51abb2"/><stop offset="1" style="stop-opacity:1;stop-color:#64ccc9"/></linearGradient><linearGradient id="a" x1="918.91998" x2="918.92499" y1="1552.71" y2="593.185" gradientUnits="userSpaceOnUse"><stop offset="0" style="stop-opacity:1;stop-color:#3e8a9b"/><stop offset="0.380392" style="stop-opacity:1;stop-color:#51abb2"/><stop offset="1" style="stop-opacity:1;stop-color:#64ccc9"/></linearGradient></defs><path d="M467 698v1604l1033 598 1033-598V698L1500 100Z" class="fil0" style="fill:#000" transform="matrix(.32667 0 0 .32667 -152.553 -32.667)"/><path d="m580 2211 920 532 920-532V789l-124-72v1422l-796 459-796-459V717l-124 72z" class="fil1" style="fill:#fff" transform="matrix(.32667 0 0 .32667 -152.553 -32.667)"/><path d="M1575 2183c0 2 0 3 2 3 0 0 1-1 2-1l291-189c5-4 10-5 17-5h64c10 0 16 6 16 16v122c0 15-3 23-16 31l-78 47c-1 1-2 1-2 1-1 0-2-1-2-4v-142c0-2-1-3-2-3s-1 0-2 1l-213 138c-6 4-11 5-16 5h-141c-10 0-17-6-17-16v-176c0-1-1-3-1-3-1 0-2 1-3 1l-140 85c-2 0-2 1-2 2s0 1 1 2l101 100c1 1 2 3 2 4s-2 1-3 1h-91c-7 0-13-1-17-5l-60-60c-1-1-1-1-2-1h-2l-102 61c-6 4-10 5-16 5h-94c-10 0-16-6-16-16v-120c0-15 3-23 16-31l78-47c1-1 2-1 2-1 2 0 2 1 2 4v160c0 2 1 3 2 3 0 0 1-1 2-1l264-159c6-4 10-5 17-5h142c10 0 17 7 17 17z" class="fil2" style="fill:#fff;fill-rule:nonzero" transform="matrix(.32667 0 0 .32667 -152.553 -32.667)"/><path d="M1133 1429V717L919 593l-125 72v816l125 72zM919 738l90 51v568l-90 51z" class="fil3" style="fill:url(#a)" transform="matrix(.32667 0 0 .32667 -152.553 -32.667)"/><path d="M1223 417v1311l277 160 277-160V417l-125-72v1311l-90 52V294l-62-37-62 37v1414l-90-52V345Z" class="fil4" style="fill:url(#b)" transform="matrix(.32667 0 0 .32667 -152.553 -32.667)"/><path d="M1867 717v712l214 124 125-72V911l-171 99v144l46-26v280l-90-51V789l90-51v141l125-72V665l-125-72z" class="fil5" style="fill:url(#c)" transform="matrix(.32667 0 0 .32667 -152.553 -32.667)"/><path d="M-152.553-32.667h980v980h-980z" class="fil6" style="fill:none;stroke-width:.326667"/></svg>