<svg xmlns="http://www.w3.org/2000/svg" width="244px" height="261px" version="1.0" viewBox="0 0 2440 2610"><path d="M1180 2564c-19-14-73-46-120-71-47-26-87-48-89-50-2-1 26-34 62-72l66-68 49 51c27 28 54 60 60 71 12 20 13 19 30-5 9-14 37-47 62-73l46-49 63 72c35 39 62 72 60 74-2 1-35 20-74 41-38 21-91 53-118 71-26 19-50 34-55 34-4-1-23-12-42-26z"/><path d="M820 2401c-181-68-332-163-460-291-375-375-468-953-230-1429C432 80 1162-169 1755 128c241 120 460 345 570 585 152 331 152 713 0 1044-79 173-230 357-389 475-85 63-267 157-352 181l-51 15-54-54c-36-37-48-55-38-58 8-2 48-14 89-26 347-102 632-390 735-745 171-592-182-1223-770-1374C858 7 228 433 140 1088c-72 534 262 1057 770 1202 41 12 81 24 89 26 10 3-2 22-39 59-30 30-57 55-60 55-3-1-39-14-80-29z"/><path d="M1171 2347c-48-51-53-61-43-78 11-17 9-19-17-19-15 0-73-11-127-25-297-75-544-280-675-559-184-394-95-868 219-1168 217-206 483-300 784-276 335 26 646 235 802 538 88 171 122 329 113 528-11 251-110 480-285 659-155 159-358 265-564 296-71 10-76 12-63 27s12 19-11 41c-15 13-38 40-53 60l-26 35-54-59zm-1-205c0-38-93-332-105-332-1 0-28 11-60 25l-57 25 44 51c74 86 116 148 139 204 21 51 39 64 39 27zm179-109c18-33 55-86 82-116l49-55-97-52c-284-149-509-349-608-542-71-136-87-212-88-407l-1-164-32 38c-70 84-143 232-144 291-1 117 140 330 328 497 84 75 299 223 417 288 41 22 77 44 80 48 2 4-11 63-30 131-39 137-40 151-23 168 10 10 15 4 23-26 7-21 26-65 44-99zm-100-124c1-12-55-49-74-49-4 0 26 94 42 130 4 10 10 2 19-25 7-22 13-47 13-56zm-320-118 35-19-85-25c-159-48-192-57-185-49 19 18 173 110 186 111 8 0 31-8 49-18zm739-37c51-31 92-57 90-60-2-2-33 5-68 16-36 10-99 28-140 40l-74 22 34 19c19 10 42 18 50 19 8 0 56-25 108-56zm-293-180c59-225 105-333 187-435 28-34 48-69 48-83 0-62-151-371-239-490-57-77-131-156-146-156s-136 141-192 225c-62 92-127 220-167 327-20 53-36 103-36 111s25 47 55 88c69 93 112 180 130 265 16 78 41 108 150 183 74 51 166 103 172 97 2-2 19-62 38-132zm250 61c50-29 149-96 220-148 147-107 143-100 144-257 0-62-2-72-12-56-131 208-241 333-402 459-102 79-83 80 50 2zm-740 22c-171-137-298-276-378-414-23-39-45-69-49-67-9 6-11 175-2 198 6 14 93 80 279 211 123 87 235 141 150 72zm623-64c231-180 366-349 407-509 14-56 14-66-1-110-25-74-82-180-124-227l-38-42-5 165c-8 279-61 419-228 595-36 38-73 84-81 100-16 33-31 95-22 95 3 0 44-30 92-67z"/><path d="M1213 1542c-23-10-47-22-52-27-6-6-15-58-20-117-17-182-52-288-146-444l-19-31 69-108 68-107 15 28c8 16 33 60 55 98l39 69 41-93 41-93 40 44c54 60 96 128 96 155 0 12-18 57-40 101-62 119-99 248-118 405-9 76-19 138-22 137-3 0-24-8-47-17zM1333 1410c4-69 15-136 32-195 26-88 90-225 106-225 15 0 49 53 49 76 0 12-27 73-59 136-33 62-72 154-87 203-39 128-48 130-41 5z"/><path d="M1075 1480c-4-6-15-41-26-80-24-87-59-166-111-253l-41-69 22-45 22-46 25 24c51 48 112 203 134 342 14 92 0 167-25 127z"/></svg>